<svg xmlns="http://www.w3.org/2000/svg" viewBox="0 0 36 24" width="36" height="24" fill="none">
  <rect x="15.9209" y="5.60522" width="15.921" height="4.60524" rx="2.30262" transform="rotate(-180 15.9209 5.60522)" fill="#15275D"/>
  <path d="M3.79803 10.7954C4.90046 7.83333 7.75736 5.86865 10.918 5.86865C10.9194 5.86865 10.9205 5.87012 10.9199 5.87151L5.89003 19.3861C5.52887 20.3565 4.60255 21.0002 3.56714 21.0002C1.83919 21.0002 0.641524 19.2765 1.24424 17.6571L3.79803 10.7954Z" fill="#001AFF"/>
  <rect x="13.1577" y="16" width="7.8947" height="5.26313" rx="2.63157" transform="rotate(-180 13.1577 16)" fill="#FF9900"/>
  <path d="M32.8518 5.4307H26.2941L27.9638 2.24746V21H23.8031V2.24746L25.5267 5.4307H18.9287V1H32.8518V5.4307Z" fill="#15275D"/>
</svg>
