<svg xmlns="http://www.w3.org/2000/svg" width="147" height="21" viewBox="0 0 147 21" fill="none"><rect x="15.9209" y="5.60522" width="15.921" height="4.60524" rx="2.30262" transform="rotate(-180 15.9209 5.60522)" fill="#15275D"></rect><path d="M3.79803 10.7954C4.90046 7.83333 7.75736 5.86865 10.918 5.86865C10.9194 5.86865 10.9205 5.87012 10.9199 5.87151L5.89003 19.3861C5.52887 20.3565 4.60255 21.0002 3.56714 21.0002C1.83919 21.0002 0.641524 19.2765 1.24424 17.6571L3.79803 10.7954Z" fill="#001AFF"></path><rect x="13.1577" y="16" width="7.8947" height="5.26313" rx="2.63157" transform="rotate(-180 13.1577 16)" fill="#FF9900"></rect><path d="M32.1737 14.94V12.2511H41.8348L41.4231 12.9331C41.4231 12.8632 41.4231 12.7976 41.4231 12.7364C41.4231 12.6664 41.4231 12.6008 41.4231 12.5396C41.4231 12.0412 41.2997 11.5646 41.0527 11.1099C40.8057 10.6464 40.4214 10.2704 39.8999 9.98187C39.3876 9.68456 38.7288 9.5359 37.9238 9.5359C37.1186 9.5359 36.4233 9.70204 35.8378 10.0343C35.2615 10.3579 34.8176 10.8257 34.5066 11.4378C34.2047 12.0499 34.0538 12.7889 34.0538 13.6546C34.0538 14.5465 34.2002 15.3116 34.493 15.9499C34.7949 16.5795 35.2386 17.0649 35.8241 17.406C36.4188 17.747 37.1553 17.9175 38.0336 17.9175C38.6007 17.9175 39.0902 17.8695 39.5019 17.7732C39.9136 17.6683 40.2475 17.5371 40.5038 17.3797C40.769 17.2223 40.9703 17.0474 41.1076 16.8551C41.2448 16.6627 41.3272 16.4746 41.3546 16.291H45.5539C45.499 16.8769 45.2886 17.4541 44.9226 18.0224C44.5566 18.5821 44.0489 19.0893 43.3993 19.5439C42.7497 19.9899 41.9584 20.3441 41.0252 20.6065C40.1012 20.8688 39.0444 21 37.8551 21C36.2449 21 34.8405 20.6939 33.6421 20.0818C32.4436 19.4609 31.515 18.6084 30.8562 17.5239C30.1975 16.431 29.8682 15.1718 29.8682 13.7463C29.8682 12.3035 30.2021 11.0399 30.87 9.95563C31.547 8.86256 32.4847 8.01435 33.6832 7.41098C34.8909 6.79887 36.2861 6.4928 37.8689 6.4928C39.4882 6.4928 40.888 6.80323 42.0682 7.4241C43.2484 8.03621 44.1587 8.89755 44.7991 10.0081C45.4394 11.1099 45.7597 12.3954 45.7597 13.8644C45.7597 14.083 45.7551 14.2929 45.746 14.494C45.7368 14.6952 45.7231 14.8438 45.7048 14.94H32.1737ZM54.6624 21C53.0614 21 51.6571 20.6939 50.4494 20.0818C49.2418 19.4609 48.3041 18.5995 47.6361 17.4977C46.9774 16.3959 46.648 15.1236 46.648 13.6808C46.648 12.2205 46.9774 10.9569 47.6361 9.89005C48.3041 8.81447 49.2418 7.97938 50.4494 7.38475C51.6571 6.79011 53.0614 6.4928 54.6624 6.4928C55.8609 6.4928 56.9223 6.66332 57.8462 7.00436C58.7703 7.33665 59.5433 7.77825 60.1655 8.32915C60.7875 8.88006 61.2588 9.48343 61.5789 10.1393C61.8992 10.7951 62.0593 11.4466 62.0593 12.0937C62.0593 12.1024 62.0593 12.1199 62.0593 12.1461C62.0593 12.1636 62.0593 12.1811 62.0593 12.1986H57.8462C57.8462 12.1461 57.8416 12.098 57.8325 12.0543C57.8325 12.0019 57.8233 11.9494 57.8051 11.8969C57.7319 11.5296 57.5717 11.1842 57.3247 10.8607C57.0777 10.5371 56.7301 10.2748 56.2818 10.0737C55.8426 9.86382 55.2937 9.75888 54.635 9.75888C53.9306 9.75888 53.2993 9.90754 52.7411 10.2049C52.1922 10.5022 51.7576 10.9438 51.4375 11.5296C51.1173 12.1068 50.9571 12.8238 50.9571 13.6808C50.9571 14.5203 51.1173 15.2461 51.4375 15.8582C51.7576 16.4616 52.1922 16.9251 52.7411 17.2486C53.2993 17.5721 53.9306 17.7338 54.635 17.7338C55.3578 17.7338 55.9478 17.6289 56.4053 17.419C56.8627 17.2004 57.2058 16.9119 57.4345 16.5533C57.6633 16.186 57.8005 15.7838 57.8462 15.3466H62.0593C62.0593 15.9937 61.8992 16.6539 61.5789 17.3273C61.2679 17.9918 60.8013 18.5995 60.1792 19.1504C59.5662 19.7013 58.7977 20.1473 57.8736 20.4883C56.9497 20.8294 55.8793 21 54.6624 21ZM73.883 20.6852V15.727C73.883 15.5521 73.883 15.3116 73.883 15.0055C73.883 14.6996 73.883 14.3891 73.883 14.0743C73.883 13.7595 73.883 13.5059 73.883 13.3135C73.883 12.2467 73.6816 11.4247 73.2792 10.8476C72.8766 10.2617 72.1401 9.96875 71.0697 9.96875C70.3744 9.96875 69.7888 10.1043 69.3131 10.3754C68.8374 10.6377 68.476 11.0094 68.229 11.4903C67.9911 11.9712 67.8722 12.5353 67.8722 13.1824L66.6371 12.3691C66.6371 11.2061 66.8978 10.1874 67.4193 9.31291C67.9408 8.42971 68.6589 7.7389 69.5739 7.24046C70.4978 6.74202 71.5637 6.4928 72.7714 6.4928C74.5554 6.4928 75.8957 6.99562 76.7923 8.00123C77.6888 8.99811 78.1372 10.3885 78.1372 12.1724C78.1372 12.6271 78.1372 13.1737 78.1372 13.812C78.1372 14.4503 78.1372 15.1892 78.1372 16.0286V20.6852H73.883ZM63.618 20.6852V0.183634H67.8722V20.6852H63.618ZM87.7854 11.2935L87.909 8.18487L96.0057 20.6852H91.3398L85.5348 11.3067L87.4424 11.5428L84.1214 15.8057L84.4918 13.2479V20.6852H80.2239V1.33791H84.4918V11.3854L83.6959 10.9656L91.0928 1.33791H95.594L87.7854 11.2935ZM97.2313 20.6852V6.75514H101.499V11.5559L100.621 11.0312C100.722 10.3754 100.905 9.772 101.17 9.22109C101.435 8.67019 101.778 8.19361 102.199 7.79137C102.62 7.38037 103.119 7.0612 103.695 6.83384C104.28 6.60648 104.948 6.4928 105.699 6.4928C106.284 6.4928 106.742 6.53653 107.071 6.62397C107.409 6.70267 107.62 6.76388 107.702 6.80761L107.002 10.4541C106.92 10.4103 106.737 10.3404 106.453 10.2442C106.17 10.148 105.804 10.0999 105.355 10.0999C104.624 10.0999 104.011 10.218 103.517 10.4541C103.022 10.6902 102.625 11.005 102.323 11.3985C102.03 11.7832 101.82 12.2117 101.691 12.6839C101.563 13.1561 101.499 13.6327 101.499 14.1136V20.6852H97.2313ZM113.43 20.9737C112.369 20.9737 111.422 20.812 110.589 20.4883C109.766 20.1648 109.121 19.697 108.655 19.0849C108.188 18.4728 107.955 17.7295 107.955 16.8551C107.955 15.8669 108.238 15.0625 108.805 14.4416C109.373 13.8207 110.123 13.3485 111.056 13.025C111.998 12.6927 113.019 12.4741 114.116 12.3691C115.717 12.2205 116.82 12.0849 117.424 11.9625C118.037 11.8401 118.343 11.6258 118.343 11.3198C118.343 11.311 118.343 11.3023 118.343 11.2935C118.343 10.7776 118.082 10.371 117.561 10.0737C117.048 9.77637 116.33 9.62771 115.406 9.62771C114.427 9.62771 113.677 9.79823 113.156 10.1393C112.643 10.4716 112.387 10.9831 112.387 11.6739H108.202C108.202 10.5546 108.517 9.61022 109.149 8.84071C109.789 8.07119 110.653 7.48968 111.742 7.09618C112.831 6.69393 114.061 6.4928 115.434 6.4928C116.715 6.4928 117.899 6.68082 118.988 7.05683C120.077 7.4241 120.951 7.97938 121.609 8.72266C122.277 9.46594 122.611 10.4103 122.611 11.5559C122.611 11.7395 122.611 11.9231 122.611 12.1068C122.611 12.2817 122.611 12.4609 122.611 12.6446V17.5764C122.611 17.935 122.62 18.2804 122.638 18.6127C122.666 18.9362 122.721 19.2336 122.803 19.5046C122.895 19.8107 123.009 20.0643 123.146 20.2654C123.284 20.4666 123.398 20.6065 123.489 20.6852H119.304C119.24 20.624 119.139 20.4972 119.002 20.3047C118.874 20.1124 118.764 19.8894 118.672 19.6358C118.563 19.3297 118.48 19.0237 118.425 18.7176C118.38 18.4028 118.357 18.0356 118.357 17.6158L119.235 18.193C118.979 18.7701 118.563 19.2685 117.986 19.6883C117.419 20.0993 116.742 20.4185 115.955 20.6457C115.178 20.8644 114.336 20.9737 113.43 20.9737ZM114.569 17.9306C115.237 17.9306 115.859 17.817 116.436 17.5896C117.021 17.3535 117.497 16.9862 117.863 16.4878C118.229 15.9894 118.412 15.3379 118.412 14.5333V13.1299L119.468 14.1136C118.865 14.3235 118.165 14.4984 117.369 14.6383C116.582 14.7694 115.795 14.8744 115.008 14.9531C114.075 15.0406 113.375 15.1936 112.909 15.4122C112.451 15.6221 112.223 15.9806 112.223 16.4878C112.223 16.9687 112.419 17.3316 112.813 17.5764C113.206 17.8125 113.792 17.9306 114.569 17.9306ZM126.397 20.6852V9.90317H123.364V6.75514H126.397V5.79762C126.397 4.8707 126.525 4.07932 126.781 3.42348C127.046 2.7589 127.404 2.208 127.851 1.77076C128.299 1.32479 128.803 0.975013 129.361 0.721422C129.929 0.459086 130.509 0.275451 131.104 0.170517C131.708 0.0568389 132.293 0 132.861 0C133.465 0 133.912 0.0349776 134.205 0.104933C134.508 0.166146 134.708 0.218613 134.809 0.262336V3.42348C134.699 3.38851 134.502 3.34915 134.218 3.30543C133.944 3.2617 133.647 3.23984 133.327 3.23984C132.797 3.23984 132.357 3.30543 132.009 3.4366C131.661 3.56776 131.387 3.76014 131.186 4.01373C130.985 4.25858 130.843 4.55152 130.76 4.89256C130.679 5.22485 130.637 5.58775 130.637 5.98125V6.75514H134.548V9.90317H130.637V20.6852H126.397ZM142.78 20.9737C142.222 20.9737 141.646 20.9256 141.051 20.8295C140.466 20.742 139.917 20.5627 139.404 20.2917C138.902 20.0118 138.493 19.6052 138.183 19.0717C137.872 18.5384 137.717 17.8344 137.717 16.96C137.717 16.7677 137.717 16.5708 137.717 16.3697C137.717 16.1686 137.717 15.9675 137.717 15.7663V9.90317H134.354V6.75514H135.302C135.851 6.75514 136.284 6.73328 136.604 6.68956C136.934 6.64583 137.176 6.53653 137.333 6.36164C137.497 6.178 137.602 5.89381 137.647 5.50905C137.694 5.12428 137.717 4.59525 137.717 3.92192V2.16427H141.984V6.75514H146.225V9.90317H141.984V14.9138C141.984 15.0712 141.984 15.2242 141.984 15.3728C141.984 15.5215 141.984 15.6658 141.984 15.8057C141.984 16.4091 142.057 16.8988 142.203 17.2748C142.36 17.6508 142.739 17.8388 143.343 17.8388C143.645 17.8388 143.928 17.8125 144.194 17.7601C144.469 17.7076 144.674 17.6551 144.811 17.6026V20.6589C144.619 20.7376 144.35 20.8076 144.001 20.8688C143.653 20.9388 143.246 20.9737 142.78 20.9737Z" fill="#15275D"></path><path d="M32.8518 5.4307H26.2941L27.9638 2.24746V21H23.8031V2.24746L25.5267 5.4307H18.9287V1H32.8518V5.4307Z" fill="#15275D"></path></svg>